<mxfile host="Electron" agent="Mozilla/5.0 (Macintosh; Intel Mac OS X 10_15_7) AppleWebKit/537.36 (KHTML, like Gecko) draw.io/24.7.8 Chrome/128.0.6613.36 Electron/32.0.1 Safari/537.36" version="24.7.8" pages="2">
  <diagram name="Architecture-Local" id="Z3ZUQLCdIYcf9JdXlAN4">
    <mxGraphModel dx="869" dy="483" grid="1" gridSize="10" guides="1" tooltips="1" connect="1" arrows="1" fold="1" page="1" pageScale="1" pageWidth="827" pageHeight="1169" math="0" shadow="0">
      <root>
        <mxCell id="0" />
        <mxCell id="1" parent="0" />
        <mxCell id="NL7I56JSL_31zy52dIn7-9" style="edgeStyle=orthogonalEdgeStyle;rounded=0;orthogonalLoop=1;jettySize=auto;html=1;endArrow=none;endFill=0;" edge="1" parent="1" source="NL7I56JSL_31zy52dIn7-1" target="NL7I56JSL_31zy52dIn7-8">
          <mxGeometry relative="1" as="geometry" />
        </mxCell>
        <mxCell id="NL7I56JSL_31zy52dIn7-1" value="User" style="sketch=0;outlineConnect=0;fontColor=#232F3E;gradientColor=none;fillColor=#232F3D;strokeColor=none;dashed=0;verticalLabelPosition=bottom;verticalAlign=top;align=center;html=1;fontSize=12;fontStyle=0;aspect=fixed;pointerEvents=1;shape=mxgraph.aws4.user;" vertex="1" parent="1">
          <mxGeometry x="40" y="120" width="40" height="40" as="geometry" />
        </mxCell>
        <mxCell id="NL7I56JSL_31zy52dIn7-2" value="&amp;nbsp; &amp;nbsp; &amp;nbsp; &amp;nbsp; &amp;nbsp; &amp;nbsp; &amp;nbsp; &amp;nbsp; &amp;nbsp; &amp;nbsp;Docker Host" style="fillColor=none;strokeColor=#5A6C86;dashed=1;verticalAlign=top;fontStyle=0;fontColor=#5A6C86;whiteSpace=wrap;html=1;align=left;" vertex="1" parent="1">
          <mxGeometry x="200" y="40" width="360" height="280" as="geometry" />
        </mxCell>
        <mxCell id="NL7I56JSL_31zy52dIn7-6" value="Webserver" style="sketch=0;points=[[0,0,0],[0.25,0,0],[0.5,0,0],[0.75,0,0],[1,0,0],[0,1,0],[0.25,1,0],[0.5,1,0],[0.75,1,0],[1,1,0],[0,0.25,0],[0,0.5,0],[0,0.75,0],[1,0.25,0],[1,0.5,0],[1,0.75,0]];gradientDirection=north;outlineConnect=0;fontColor=#232F3E;gradientColor=none;fillColor=#1E262E;strokeColor=#ffffff;dashed=0;verticalLabelPosition=bottom;verticalAlign=top;align=center;html=1;fontSize=12;fontStyle=0;aspect=fixed;shape=mxgraph.aws4.resourceIcon;resIcon=mxgraph.aws4.general;" vertex="1" parent="1">
          <mxGeometry x="320" y="120" width="40" height="40" as="geometry" />
        </mxCell>
        <mxCell id="NL7I56JSL_31zy52dIn7-8" value="Web-Browser" style="sketch=0;outlineConnect=0;fontColor=#232F3E;gradientColor=none;fillColor=#232F3D;strokeColor=none;dashed=0;verticalLabelPosition=bottom;verticalAlign=top;align=center;html=1;fontSize=12;fontStyle=0;aspect=fixed;pointerEvents=1;shape=mxgraph.aws4.client;" vertex="1" parent="1">
          <mxGeometry x="120" y="120" width="41.05" height="40" as="geometry" />
        </mxCell>
        <mxCell id="NL7I56JSL_31zy52dIn7-10" style="edgeStyle=orthogonalEdgeStyle;rounded=0;orthogonalLoop=1;jettySize=auto;html=1;entryX=0;entryY=0.5;entryDx=0;entryDy=0;entryPerimeter=0;endArrow=none;endFill=0;" edge="1" parent="1" source="NL7I56JSL_31zy52dIn7-8" target="NL7I56JSL_31zy52dIn7-6">
          <mxGeometry relative="1" as="geometry" />
        </mxCell>
        <mxCell id="NL7I56JSL_31zy52dIn7-11" value="Web App: HTML, CSS, JS" style="edgeLabel;html=1;align=center;verticalAlign=middle;resizable=0;points=[];" vertex="1" connectable="0" parent="NL7I56JSL_31zy52dIn7-10">
          <mxGeometry x="-0.039" y="2" relative="1" as="geometry">
            <mxPoint x="3" y="2" as="offset" />
          </mxGeometry>
        </mxCell>
        <mxCell id="NL7I56JSL_31zy52dIn7-12" value="Backend" style="sketch=0;points=[[0,0,0],[0.25,0,0],[0.5,0,0],[0.75,0,0],[1,0,0],[0,1,0],[0.25,1,0],[0.5,1,0],[0.75,1,0],[1,1,0],[0,0.25,0],[0,0.5,0],[0,0.75,0],[1,0.25,0],[1,0.5,0],[1,0.75,0]];gradientDirection=north;outlineConnect=0;fontColor=#232F3E;gradientColor=none;fillColor=#1E262E;strokeColor=#ffffff;dashed=0;verticalLabelPosition=bottom;verticalAlign=top;align=center;html=1;fontSize=12;fontStyle=0;aspect=fixed;shape=mxgraph.aws4.resourceIcon;resIcon=mxgraph.aws4.general;" vertex="1" parent="1">
          <mxGeometry x="320" y="240" width="40" height="40" as="geometry" />
        </mxCell>
        <mxCell id="NL7I56JSL_31zy52dIn7-14" style="edgeStyle=orthogonalEdgeStyle;rounded=0;orthogonalLoop=1;jettySize=auto;html=1;entryX=0;entryY=0.5;entryDx=0;entryDy=0;entryPerimeter=0;endArrow=none;endFill=0;" edge="1" parent="1" source="NL7I56JSL_31zy52dIn7-8" target="NL7I56JSL_31zy52dIn7-12">
          <mxGeometry relative="1" as="geometry">
            <Array as="points">
              <mxPoint x="141" y="260" />
            </Array>
          </mxGeometry>
        </mxCell>
        <mxCell id="NL7I56JSL_31zy52dIn7-17" value="CRUD-Operations for&lt;div&gt;Travel Guides and Activities&lt;/div&gt;&lt;div&gt;(REST API, JSON)&lt;/div&gt;" style="edgeLabel;html=1;align=center;verticalAlign=middle;resizable=0;points=[];" vertex="1" connectable="0" parent="NL7I56JSL_31zy52dIn7-14">
          <mxGeometry x="-0.0025" y="-1" relative="1" as="geometry">
            <mxPoint x="54" y="-1" as="offset" />
          </mxGeometry>
        </mxCell>
        <mxCell id="NL7I56JSL_31zy52dIn7-15" value="Database" style="sketch=0;points=[[0,0,0],[0.25,0,0],[0.5,0,0],[0.75,0,0],[1,0,0],[0,1,0],[0.25,1,0],[0.5,1,0],[0.75,1,0],[1,1,0],[0,0.25,0],[0,0.5,0],[0,0.75,0],[1,0.25,0],[1,0.5,0],[1,0.75,0]];gradientDirection=north;outlineConnect=0;fontColor=#232F3E;gradientColor=none;fillColor=#1E262E;strokeColor=#ffffff;dashed=0;verticalLabelPosition=bottom;verticalAlign=top;align=center;html=1;fontSize=12;fontStyle=0;aspect=fixed;shape=mxgraph.aws4.resourceIcon;resIcon=mxgraph.aws4.general;" vertex="1" parent="1">
          <mxGeometry x="480" y="240" width="40" height="40" as="geometry" />
        </mxCell>
        <mxCell id="NL7I56JSL_31zy52dIn7-16" style="edgeStyle=orthogonalEdgeStyle;rounded=0;orthogonalLoop=1;jettySize=auto;html=1;entryX=0;entryY=0.5;entryDx=0;entryDy=0;entryPerimeter=0;endArrow=none;endFill=0;" edge="1" parent="1" source="NL7I56JSL_31zy52dIn7-12" target="NL7I56JSL_31zy52dIn7-15">
          <mxGeometry relative="1" as="geometry" />
        </mxCell>
        <mxCell id="NL7I56JSL_31zy52dIn7-19" value="Get and store data" style="edgeLabel;html=1;align=center;verticalAlign=middle;resizable=0;points=[];" vertex="1" connectable="0" parent="NL7I56JSL_31zy52dIn7-16">
          <mxGeometry x="-0.1167" y="2" relative="1" as="geometry">
            <mxPoint x="7" y="2" as="offset" />
          </mxGeometry>
        </mxCell>
        <mxCell id="NL7I56JSL_31zy52dIn7-5" value="" style="image;sketch=0;aspect=fixed;html=1;points=[];align=center;fontSize=12;image=img/lib/mscae/Docker.svg;" vertex="1" parent="1">
          <mxGeometry x="210" y="50" width="48.79" height="40" as="geometry" />
        </mxCell>
      </root>
    </mxGraphModel>
  </diagram>
  <diagram id="GIifj0wEwaViOqbE6Wq0" name="Web App Mockup">
    <mxGraphModel dx="1434" dy="797" grid="1" gridSize="10" guides="1" tooltips="1" connect="1" arrows="1" fold="1" page="1" pageScale="1" pageWidth="827" pageHeight="1169" math="0" shadow="0">
      <root>
        <mxCell id="0" />
        <mxCell id="1" parent="0" />
        <mxCell id="KDdBKSseBK1i1XxG2ZYx-11" value="" style="strokeWidth=1;shadow=0;dashed=0;align=center;html=1;shape=mxgraph.mockup.containers.browserWindow;rSize=0;strokeColor=#666666;strokeColor2=#008cff;strokeColor3=#c4c4c4;mainText=,;recursiveResize=0;" parent="1" vertex="1">
          <mxGeometry x="40" y="40" width="680" height="640" as="geometry" />
        </mxCell>
        <mxCell id="KDdBKSseBK1i1XxG2ZYx-12" value="Page 1" style="strokeWidth=1;shadow=0;dashed=0;align=center;html=1;shape=mxgraph.mockup.containers.anchor;fontSize=17;fontColor=#666666;align=left;whiteSpace=wrap;" parent="KDdBKSseBK1i1XxG2ZYx-11" vertex="1">
          <mxGeometry x="60" y="12" width="110" height="26" as="geometry" />
        </mxCell>
        <mxCell id="KDdBKSseBK1i1XxG2ZYx-13" value="https://localhost:8080/travel-guides" style="strokeWidth=1;shadow=0;dashed=0;align=center;html=1;shape=mxgraph.mockup.containers.anchor;rSize=0;fontSize=17;fontColor=#666666;align=left;" parent="KDdBKSseBK1i1XxG2ZYx-11" vertex="1">
          <mxGeometry x="130" y="60" width="250" height="26" as="geometry" />
        </mxCell>
        <mxCell id="KDdBKSseBK1i1XxG2ZYx-15" value="" style="rounded=0;whiteSpace=wrap;html=1;" parent="KDdBKSseBK1i1XxG2ZYx-11" vertex="1">
          <mxGeometry x="60" y="280" width="580" height="160" as="geometry" />
        </mxCell>
        <mxCell id="KDdBKSseBK1i1XxG2ZYx-16" value="&lt;h1 style=&quot;margin-top: 0px;&quot;&gt;Paris&lt;/h1&gt;&lt;p&gt;The main attractions of Paris&lt;/p&gt;" style="text;html=1;whiteSpace=wrap;overflow=hidden;rounded=0;" parent="KDdBKSseBK1i1XxG2ZYx-11" vertex="1">
          <mxGeometry x="130" y="290" width="180" height="80" as="geometry" />
        </mxCell>
        <mxCell id="KDdBKSseBK1i1XxG2ZYx-17" value="" style="ellipse;whiteSpace=wrap;html=1;aspect=fixed;" parent="KDdBKSseBK1i1XxG2ZYx-11" vertex="1">
          <mxGeometry x="80" y="310" width="40" height="40" as="geometry" />
        </mxCell>
        <mxCell id="KDdBKSseBK1i1XxG2ZYx-18" value="Details" style="strokeWidth=1;shadow=0;dashed=0;align=center;html=1;shape=mxgraph.mockup.buttons.button;strokeColor=#666666;fontColor=#ffffff;mainText=;buttonStyle=round;fontSize=17;fontStyle=1;fillColor=#008cff;whiteSpace=wrap;" parent="KDdBKSseBK1i1XxG2ZYx-11" vertex="1">
          <mxGeometry x="510" y="380" width="110" height="40" as="geometry" />
        </mxCell>
        <mxCell id="KDdBKSseBK1i1XxG2ZYx-19" value="" style="rounded=0;whiteSpace=wrap;html=1;" parent="KDdBKSseBK1i1XxG2ZYx-11" vertex="1">
          <mxGeometry x="60" y="460" width="580" height="160" as="geometry" />
        </mxCell>
        <mxCell id="KDdBKSseBK1i1XxG2ZYx-20" value="&lt;h1 style=&quot;margin-top: 0px;&quot;&gt;Berlin&lt;/h1&gt;&lt;p&gt;The main attractions of Berlin&lt;/p&gt;" style="text;html=1;whiteSpace=wrap;overflow=hidden;rounded=0;" parent="KDdBKSseBK1i1XxG2ZYx-11" vertex="1">
          <mxGeometry x="130" y="470" width="180" height="80" as="geometry" />
        </mxCell>
        <mxCell id="KDdBKSseBK1i1XxG2ZYx-21" value="" style="ellipse;whiteSpace=wrap;html=1;aspect=fixed;" parent="KDdBKSseBK1i1XxG2ZYx-11" vertex="1">
          <mxGeometry x="80" y="490" width="40" height="40" as="geometry" />
        </mxCell>
        <mxCell id="KDdBKSseBK1i1XxG2ZYx-22" value="Details" style="strokeWidth=1;shadow=0;dashed=0;align=center;html=1;shape=mxgraph.mockup.buttons.button;strokeColor=#666666;fontColor=#ffffff;mainText=;buttonStyle=round;fontSize=17;fontStyle=1;fillColor=#008cff;whiteSpace=wrap;" parent="KDdBKSseBK1i1XxG2ZYx-11" vertex="1">
          <mxGeometry x="510" y="560" width="110" height="40" as="geometry" />
        </mxCell>
        <mxCell id="KDdBKSseBK1i1XxG2ZYx-45" value="Create&amp;nbsp;" style="strokeWidth=1;shadow=0;dashed=0;align=center;html=1;shape=mxgraph.mockup.buttons.button;mainText=;buttonStyle=round;fontSize=17;fontStyle=1;whiteSpace=wrap;fillColor=#ffe6cc;strokeColor=#d79b00;" parent="KDdBKSseBK1i1XxG2ZYx-11" vertex="1">
          <mxGeometry x="510" y="200" width="110" height="40" as="geometry" />
        </mxCell>
        <mxCell id="KDdBKSseBK1i1XxG2ZYx-46" value="Find a Travel Guide or create your own" style="text;html=1;align=center;verticalAlign=middle;whiteSpace=wrap;rounded=0;" parent="KDdBKSseBK1i1XxG2ZYx-11" vertex="1">
          <mxGeometry x="50" y="205" width="260" height="30" as="geometry" />
        </mxCell>
        <mxCell id="KDdBKSseBK1i1XxG2ZYx-145" value="" style="html=1;verticalLabelPosition=bottom;align=center;labelBackgroundColor=#ffffff;verticalAlign=top;strokeWidth=2;strokeColor=#b85450;shadow=0;dashed=0;shape=mxgraph.ios7.icons.trashcan;fillColor=#f8cecc;" parent="KDdBKSseBK1i1XxG2ZYx-11" vertex="1">
          <mxGeometry x="470" y="569" width="20" height="22" as="geometry" />
        </mxCell>
        <mxCell id="KDdBKSseBK1i1XxG2ZYx-146" value="" style="sketch=0;outlineConnect=0;fontColor=#232F3E;gradientColor=none;fillColor=#232F3D;strokeColor=none;dashed=0;verticalLabelPosition=bottom;verticalAlign=top;align=center;html=1;fontSize=12;fontStyle=0;aspect=fixed;pointerEvents=1;shape=mxgraph.aws4.authenticated_user;" parent="KDdBKSseBK1i1XxG2ZYx-11" vertex="1">
          <mxGeometry x="580" y="470" width="40" height="40" as="geometry" />
        </mxCell>
        <mxCell id="KDdBKSseBK1i1XxG2ZYx-14" value="Travel Guides" style="rounded=0;whiteSpace=wrap;html=1;fillColor=#dae8fc;strokeColor=#6c8ebf;" parent="1" vertex="1">
          <mxGeometry x="40" y="150" width="680" height="50" as="geometry" />
        </mxCell>
        <mxCell id="KDdBKSseBK1i1XxG2ZYx-27" value="" style="strokeWidth=1;shadow=0;dashed=0;align=center;html=1;shape=mxgraph.mockup.containers.browserWindow;rSize=0;strokeColor=#666666;strokeColor2=#008cff;strokeColor3=#c4c4c4;mainText=,;recursiveResize=0;" parent="1" vertex="1">
          <mxGeometry x="760" y="40" width="680" height="640" as="geometry" />
        </mxCell>
        <mxCell id="KDdBKSseBK1i1XxG2ZYx-28" value="Page 1" style="strokeWidth=1;shadow=0;dashed=0;align=center;html=1;shape=mxgraph.mockup.containers.anchor;fontSize=17;fontColor=#666666;align=left;whiteSpace=wrap;" parent="KDdBKSseBK1i1XxG2ZYx-27" vertex="1">
          <mxGeometry x="60" y="12" width="110" height="26" as="geometry" />
        </mxCell>
        <mxCell id="KDdBKSseBK1i1XxG2ZYx-29" value="https://localhost:8080/travel-guides/e11e75b0-7960-41c8-a4b5-1358..." style="strokeWidth=1;shadow=0;dashed=0;align=center;html=1;shape=mxgraph.mockup.containers.anchor;rSize=0;fontSize=17;fontColor=#666666;align=left;" parent="KDdBKSseBK1i1XxG2ZYx-27" vertex="1">
          <mxGeometry x="130" y="60" width="250" height="26" as="geometry" />
        </mxCell>
        <mxCell id="KDdBKSseBK1i1XxG2ZYx-30" value="" style="rounded=0;whiteSpace=wrap;html=1;" parent="KDdBKSseBK1i1XxG2ZYx-27" vertex="1">
          <mxGeometry x="60" y="260" width="580" height="80" as="geometry" />
        </mxCell>
        <mxCell id="KDdBKSseBK1i1XxG2ZYx-31" value="&lt;h1 style=&quot;margin-top: 0px;&quot;&gt;Paris&lt;/h1&gt;" style="text;html=1;whiteSpace=wrap;overflow=hidden;rounded=0;align=center;" parent="KDdBKSseBK1i1XxG2ZYx-27" vertex="1">
          <mxGeometry y="200" width="680" height="40" as="geometry" />
        </mxCell>
        <mxCell id="KDdBKSseBK1i1XxG2ZYx-32" value="" style="ellipse;whiteSpace=wrap;html=1;aspect=fixed;" parent="KDdBKSseBK1i1XxG2ZYx-27" vertex="1">
          <mxGeometry x="80" y="280" width="40" height="40" as="geometry" />
        </mxCell>
        <mxCell id="KDdBKSseBK1i1XxG2ZYx-43" value="&amp;lt; Back" style="strokeWidth=1;shadow=0;dashed=0;align=center;html=1;shape=mxgraph.mockup.buttons.button;strokeColor=#666666;fontColor=#ffffff;mainText=;buttonStyle=round;fontSize=17;fontStyle=1;fillColor=#008cff;whiteSpace=wrap;" parent="KDdBKSseBK1i1XxG2ZYx-27" vertex="1">
          <mxGeometry x="60" y="200" width="110" height="40" as="geometry" />
        </mxCell>
        <mxCell id="KDdBKSseBK1i1XxG2ZYx-93" value="&lt;h1 style=&quot;margin-top: 0px;&quot;&gt;Eiffel Tower&lt;/h1&gt;" style="text;html=1;whiteSpace=wrap;overflow=hidden;rounded=0;align=left;" parent="KDdBKSseBK1i1XxG2ZYx-27" vertex="1">
          <mxGeometry x="140" y="270" width="480" height="40" as="geometry" />
        </mxCell>
        <mxCell id="KDdBKSseBK1i1XxG2ZYx-94" value="" style="rounded=0;whiteSpace=wrap;html=1;" parent="KDdBKSseBK1i1XxG2ZYx-27" vertex="1">
          <mxGeometry x="60" y="360" width="580" height="80" as="geometry" />
        </mxCell>
        <mxCell id="KDdBKSseBK1i1XxG2ZYx-95" value="" style="ellipse;whiteSpace=wrap;html=1;aspect=fixed;" parent="KDdBKSseBK1i1XxG2ZYx-27" vertex="1">
          <mxGeometry x="80" y="380" width="40" height="40" as="geometry" />
        </mxCell>
        <mxCell id="KDdBKSseBK1i1XxG2ZYx-96" value="&lt;h1 style=&quot;margin-top: 0px;&quot;&gt;Notre-Dame&lt;/h1&gt;" style="text;html=1;whiteSpace=wrap;overflow=hidden;rounded=0;align=left;" parent="KDdBKSseBK1i1XxG2ZYx-27" vertex="1">
          <mxGeometry x="140" y="370" width="480" height="40" as="geometry" />
        </mxCell>
        <mxCell id="KDdBKSseBK1i1XxG2ZYx-97" value="" style="rounded=0;whiteSpace=wrap;html=1;" parent="KDdBKSseBK1i1XxG2ZYx-27" vertex="1">
          <mxGeometry x="60" y="460" width="580" height="80" as="geometry" />
        </mxCell>
        <mxCell id="KDdBKSseBK1i1XxG2ZYx-98" value="" style="ellipse;whiteSpace=wrap;html=1;aspect=fixed;" parent="KDdBKSseBK1i1XxG2ZYx-27" vertex="1">
          <mxGeometry x="80" y="480" width="40" height="40" as="geometry" />
        </mxCell>
        <mxCell id="KDdBKSseBK1i1XxG2ZYx-99" value="&lt;h1 style=&quot;margin-top: 0px;&quot;&gt;Louvre Museum&lt;/h1&gt;" style="text;html=1;whiteSpace=wrap;overflow=hidden;rounded=0;align=left;" parent="KDdBKSseBK1i1XxG2ZYx-27" vertex="1">
          <mxGeometry x="140" y="470" width="480" height="40" as="geometry" />
        </mxCell>
        <mxCell id="KDdBKSseBK1i1XxG2ZYx-100" value="Paris, 90min, Relax" style="text;html=1;align=left;verticalAlign=middle;whiteSpace=wrap;rounded=0;" parent="KDdBKSseBK1i1XxG2ZYx-27" vertex="1">
          <mxGeometry x="140" y="300" width="370" height="30" as="geometry" />
        </mxCell>
        <mxCell id="KDdBKSseBK1i1XxG2ZYx-101" value="Paris, 60min, Church" style="text;html=1;align=left;verticalAlign=middle;whiteSpace=wrap;rounded=0;" parent="KDdBKSseBK1i1XxG2ZYx-27" vertex="1">
          <mxGeometry x="140" y="400" width="370" height="30" as="geometry" />
        </mxCell>
        <mxCell id="KDdBKSseBK1i1XxG2ZYx-102" value="Paris, 180min, Museum" style="text;html=1;align=left;verticalAlign=middle;whiteSpace=wrap;rounded=0;" parent="KDdBKSseBK1i1XxG2ZYx-27" vertex="1">
          <mxGeometry x="140" y="500" width="370" height="30" as="geometry" />
        </mxCell>
        <mxCell id="KDdBKSseBK1i1XxG2ZYx-105" value="" style="triangle;whiteSpace=wrap;html=1;rotation=-90;" parent="KDdBKSseBK1i1XxG2ZYx-27" vertex="1">
          <mxGeometry x="610" y="482.5" width="10" height="20" as="geometry" />
        </mxCell>
        <mxCell id="KDdBKSseBK1i1XxG2ZYx-111" value="" style="triangle;whiteSpace=wrap;html=1;rotation=-90;" parent="KDdBKSseBK1i1XxG2ZYx-27" vertex="1">
          <mxGeometry x="610" y="382.5" width="10" height="20" as="geometry" />
        </mxCell>
        <mxCell id="KDdBKSseBK1i1XxG2ZYx-112" value="" style="triangle;whiteSpace=wrap;html=1;rotation=90;" parent="KDdBKSseBK1i1XxG2ZYx-27" vertex="1">
          <mxGeometry x="610" y="397.5" width="10" height="20" as="geometry" />
        </mxCell>
        <mxCell id="KDdBKSseBK1i1XxG2ZYx-114" value="" style="triangle;whiteSpace=wrap;html=1;rotation=90;" parent="KDdBKSseBK1i1XxG2ZYx-27" vertex="1">
          <mxGeometry x="610" y="297.5" width="10" height="20" as="geometry" />
        </mxCell>
        <mxCell id="KDdBKSseBK1i1XxG2ZYx-115" value="Add Activity" style="strokeWidth=1;shadow=0;dashed=0;align=center;html=1;shape=mxgraph.mockup.buttons.button;mainText=;buttonStyle=round;fontSize=17;fontStyle=1;whiteSpace=wrap;fillColor=#ffe6cc;strokeColor=#d79b00;" parent="KDdBKSseBK1i1XxG2ZYx-27" vertex="1">
          <mxGeometry x="530" y="200" width="110" height="40" as="geometry" />
        </mxCell>
        <mxCell id="KDdBKSseBK1i1XxG2ZYx-138" value="Delete Guide" style="strokeWidth=1;shadow=0;dashed=0;align=center;html=1;shape=mxgraph.mockup.buttons.button;mainText=;buttonStyle=round;fontSize=17;fontStyle=1;whiteSpace=wrap;fillColor=#f8cecc;strokeColor=#b85450;" parent="KDdBKSseBK1i1XxG2ZYx-27" vertex="1">
          <mxGeometry x="530" y="560" width="110" height="40" as="geometry" />
        </mxCell>
        <mxCell id="KDdBKSseBK1i1XxG2ZYx-140" value="" style="html=1;verticalLabelPosition=bottom;align=center;labelBackgroundColor=#ffffff;verticalAlign=top;strokeWidth=2;strokeColor=#b85450;shadow=0;dashed=0;shape=mxgraph.ios7.icons.trashcan;fillColor=#f8cecc;" parent="KDdBKSseBK1i1XxG2ZYx-27" vertex="1">
          <mxGeometry x="575" y="295.5" width="20" height="22" as="geometry" />
        </mxCell>
        <mxCell id="KDdBKSseBK1i1XxG2ZYx-139" value="" style="html=1;verticalLabelPosition=bottom;align=center;labelBackgroundColor=#ffffff;verticalAlign=top;strokeWidth=2;strokeColor=#b85450;shadow=0;dashed=0;shape=mxgraph.ios7.icons.trashcan;fillColor=#f8cecc;" parent="KDdBKSseBK1i1XxG2ZYx-27" vertex="1">
          <mxGeometry x="575" y="388" width="20" height="22" as="geometry" />
        </mxCell>
        <mxCell id="KDdBKSseBK1i1XxG2ZYx-141" value="" style="html=1;verticalLabelPosition=bottom;align=center;labelBackgroundColor=#ffffff;verticalAlign=top;strokeWidth=2;strokeColor=#b85450;shadow=0;dashed=0;shape=mxgraph.ios7.icons.trashcan;fillColor=#f8cecc;" parent="KDdBKSseBK1i1XxG2ZYx-27" vertex="1">
          <mxGeometry x="575" y="488" width="20" height="22" as="geometry" />
        </mxCell>
        <mxCell id="KDdBKSseBK1i1XxG2ZYx-142" value="Edit Guide" style="strokeWidth=1;shadow=0;dashed=0;align=center;html=1;shape=mxgraph.mockup.buttons.button;mainText=;buttonStyle=round;fontSize=17;fontStyle=1;whiteSpace=wrap;fillColor=#ffe6cc;strokeColor=#d79b00;" parent="KDdBKSseBK1i1XxG2ZYx-27" vertex="1">
          <mxGeometry x="405" y="560" width="110" height="40" as="geometry" />
        </mxCell>
        <mxCell id="KDdBKSseBK1i1XxG2ZYx-38" value="Paris" style="rounded=0;whiteSpace=wrap;html=1;fillColor=#dae8fc;strokeColor=#6c8ebf;" parent="1" vertex="1">
          <mxGeometry x="760" y="150" width="680" height="50" as="geometry" />
        </mxCell>
        <mxCell id="KDdBKSseBK1i1XxG2ZYx-60" value="" style="strokeWidth=1;shadow=0;dashed=0;align=center;html=1;shape=mxgraph.mockup.containers.browserWindow;rSize=0;strokeColor=#666666;strokeColor2=#008cff;strokeColor3=#c4c4c4;mainText=,;recursiveResize=0;" parent="1" vertex="1">
          <mxGeometry x="1480" y="40" width="680" height="640" as="geometry" />
        </mxCell>
        <mxCell id="KDdBKSseBK1i1XxG2ZYx-61" value="Page 1" style="strokeWidth=1;shadow=0;dashed=0;align=center;html=1;shape=mxgraph.mockup.containers.anchor;fontSize=17;fontColor=#666666;align=left;whiteSpace=wrap;" parent="KDdBKSseBK1i1XxG2ZYx-60" vertex="1">
          <mxGeometry x="60" y="12" width="110" height="26" as="geometry" />
        </mxCell>
        <mxCell id="KDdBKSseBK1i1XxG2ZYx-62" value="https://localhost:8080/travel-guides" style="strokeWidth=1;shadow=0;dashed=0;align=center;html=1;shape=mxgraph.mockup.containers.anchor;rSize=0;fontSize=17;fontColor=#666666;align=left;" parent="KDdBKSseBK1i1XxG2ZYx-60" vertex="1">
          <mxGeometry x="130" y="60" width="250" height="26" as="geometry" />
        </mxCell>
        <mxCell id="KDdBKSseBK1i1XxG2ZYx-74" value="" style="rounded=0;whiteSpace=wrap;html=1;" parent="KDdBKSseBK1i1XxG2ZYx-60" vertex="1">
          <mxGeometry x="50" y="200" width="590" height="400" as="geometry" />
        </mxCell>
        <mxCell id="KDdBKSseBK1i1XxG2ZYx-76" value="Create" style="strokeWidth=1;shadow=0;dashed=0;align=center;html=1;shape=mxgraph.mockup.buttons.button;strokeColor=#666666;fontColor=#ffffff;mainText=;buttonStyle=round;fontSize=17;fontStyle=1;fillColor=#008cff;whiteSpace=wrap;" parent="KDdBKSseBK1i1XxG2ZYx-60" vertex="1">
          <mxGeometry x="510" y="540" width="110" height="40" as="geometry" />
        </mxCell>
        <mxCell id="KDdBKSseBK1i1XxG2ZYx-77" value="Private" style="strokeWidth=1;shadow=0;dashed=0;align=center;html=1;shape=mxgraph.mockup.forms.rrect;rSize=0;fillColor=#eeeeee;strokeColor=#999999;gradientColor=#cccccc;align=left;spacingLeft=4;fontSize=17;fontColor=#666666;labelPosition=right;" parent="KDdBKSseBK1i1XxG2ZYx-60" vertex="1">
          <mxGeometry x="112.5" y="422.5" width="15" height="15" as="geometry" />
        </mxCell>
        <mxCell id="KDdBKSseBK1i1XxG2ZYx-78" value="Rome" style="strokeWidth=1;shadow=0;dashed=0;align=center;html=1;shape=mxgraph.mockup.forms.pwField;strokeColor=#999999;mainText=;align=left;fontColor=#666666;fontSize=17;spacingLeft=3;" parent="KDdBKSseBK1i1XxG2ZYx-60" vertex="1">
          <mxGeometry x="112.5" y="280" width="135" height="30" as="geometry" />
        </mxCell>
        <mxCell id="KDdBKSseBK1i1XxG2ZYx-79" value="Name" style="text;html=1;align=left;verticalAlign=middle;whiteSpace=wrap;rounded=0;" parent="KDdBKSseBK1i1XxG2ZYx-60" vertex="1">
          <mxGeometry x="112.5" y="260" width="145" height="20" as="geometry" />
        </mxCell>
        <mxCell id="KDdBKSseBK1i1XxG2ZYx-80" value="Rome" style="strokeWidth=1;shadow=0;dashed=0;align=center;html=1;shape=mxgraph.mockup.forms.pwField;strokeColor=#999999;mainText=;align=left;fontColor=#666666;fontSize=17;spacingLeft=3;" parent="KDdBKSseBK1i1XxG2ZYx-60" vertex="1">
          <mxGeometry x="112.5" y="360" width="135" height="30" as="geometry" />
        </mxCell>
        <mxCell id="KDdBKSseBK1i1XxG2ZYx-81" value="Description" style="text;html=1;align=left;verticalAlign=middle;whiteSpace=wrap;rounded=0;" parent="KDdBKSseBK1i1XxG2ZYx-60" vertex="1">
          <mxGeometry x="112.5" y="340" width="145" height="20" as="geometry" />
        </mxCell>
        <mxCell id="KDdBKSseBK1i1XxG2ZYx-82" value="*****" style="strokeWidth=1;shadow=0;dashed=0;align=center;html=1;shape=mxgraph.mockup.forms.pwField;strokeColor=#999999;mainText=;align=left;fontColor=#666666;fontSize=17;spacingLeft=3;" parent="KDdBKSseBK1i1XxG2ZYx-60" vertex="1">
          <mxGeometry x="112.5" y="490" width="135" height="30" as="geometry" />
        </mxCell>
        <mxCell id="KDdBKSseBK1i1XxG2ZYx-83" value="Password (Edit &amp;amp; Private)" style="text;html=1;align=left;verticalAlign=middle;whiteSpace=wrap;rounded=0;" parent="KDdBKSseBK1i1XxG2ZYx-60" vertex="1">
          <mxGeometry x="112.5" y="470" width="145" height="20" as="geometry" />
        </mxCell>
        <mxCell id="KDdBKSseBK1i1XxG2ZYx-84" value="Rome" style="strokeWidth=1;shadow=0;dashed=0;align=center;html=1;shape=mxgraph.mockup.forms.pwField;strokeColor=#999999;mainText=;align=left;fontColor=#666666;fontSize=17;spacingLeft=3;" parent="KDdBKSseBK1i1XxG2ZYx-60" vertex="1">
          <mxGeometry x="357.5" y="280" width="135" height="30" as="geometry" />
        </mxCell>
        <mxCell id="KDdBKSseBK1i1XxG2ZYx-85" value="Street, Number" style="text;html=1;align=left;verticalAlign=middle;whiteSpace=wrap;rounded=0;" parent="KDdBKSseBK1i1XxG2ZYx-60" vertex="1">
          <mxGeometry x="357.5" y="260" width="145" height="20" as="geometry" />
        </mxCell>
        <mxCell id="KDdBKSseBK1i1XxG2ZYx-86" value="" style="strokeWidth=1;shadow=0;dashed=0;align=center;html=1;shape=mxgraph.mockup.forms.pwField;strokeColor=#999999;mainText=;align=left;fontColor=#666666;fontSize=17;spacingLeft=3;" parent="KDdBKSseBK1i1XxG2ZYx-60" vertex="1">
          <mxGeometry x="357.5" y="360" width="80" height="30" as="geometry" />
        </mxCell>
        <mxCell id="KDdBKSseBK1i1XxG2ZYx-87" value="Zip, City" style="text;html=1;align=left;verticalAlign=middle;whiteSpace=wrap;rounded=0;" parent="KDdBKSseBK1i1XxG2ZYx-60" vertex="1">
          <mxGeometry x="357.5" y="340" width="145" height="20" as="geometry" />
        </mxCell>
        <mxCell id="KDdBKSseBK1i1XxG2ZYx-88" value="" style="strokeWidth=1;shadow=0;dashed=0;align=center;html=1;shape=mxgraph.mockup.forms.pwField;strokeColor=#999999;mainText=;align=left;fontColor=#666666;fontSize=17;spacingLeft=3;" parent="KDdBKSseBK1i1XxG2ZYx-60" vertex="1">
          <mxGeometry x="502.5" y="280" width="65" height="30" as="geometry" />
        </mxCell>
        <mxCell id="KDdBKSseBK1i1XxG2ZYx-89" value="Rome" style="strokeWidth=1;shadow=0;dashed=0;align=center;html=1;shape=mxgraph.mockup.forms.pwField;strokeColor=#999999;mainText=;align=left;fontColor=#666666;fontSize=17;spacingLeft=3;" parent="KDdBKSseBK1i1XxG2ZYx-60" vertex="1">
          <mxGeometry x="447.5" y="360" width="120" height="30" as="geometry" />
        </mxCell>
        <mxCell id="KDdBKSseBK1i1XxG2ZYx-90" value="Italy" style="strokeWidth=1;shadow=0;dashed=0;align=center;html=1;shape=mxgraph.mockup.forms.pwField;strokeColor=#999999;mainText=;align=left;fontColor=#666666;fontSize=17;spacingLeft=3;" parent="KDdBKSseBK1i1XxG2ZYx-60" vertex="1">
          <mxGeometry x="357.5" y="440" width="135" height="30" as="geometry" />
        </mxCell>
        <mxCell id="KDdBKSseBK1i1XxG2ZYx-91" value="Country" style="text;html=1;align=left;verticalAlign=middle;whiteSpace=wrap;rounded=0;" parent="KDdBKSseBK1i1XxG2ZYx-60" vertex="1">
          <mxGeometry x="357.5" y="420" width="145" height="20" as="geometry" />
        </mxCell>
        <mxCell id="KDdBKSseBK1i1XxG2ZYx-92" value="&lt;b&gt;Create Travel Guide&lt;/b&gt;" style="text;html=1;align=left;verticalAlign=middle;whiteSpace=wrap;rounded=0;" parent="KDdBKSseBK1i1XxG2ZYx-60" vertex="1">
          <mxGeometry x="112.5" y="210" width="170" height="30" as="geometry" />
        </mxCell>
        <mxCell id="KDdBKSseBK1i1XxG2ZYx-73" value="Travel Guides" style="rounded=0;whiteSpace=wrap;html=1;fillColor=#dae8fc;strokeColor=#6c8ebf;" parent="1" vertex="1">
          <mxGeometry x="1480" y="150" width="680" height="50" as="geometry" />
        </mxCell>
        <mxCell id="KDdBKSseBK1i1XxG2ZYx-143" value="List of Travel Guides" style="shape=note;strokeWidth=2;fontSize=14;size=20;whiteSpace=wrap;html=1;fillColor=#fff2cc;strokeColor=#d6b656;fontColor=#666600;align=left;" parent="1" vertex="1">
          <mxGeometry x="40" y="720" width="680" height="80" as="geometry" />
        </mxCell>
        <mxCell id="KDdBKSseBK1i1XxG2ZYx-144" value="List of Activities in a Travel Guide" style="shape=note;strokeWidth=2;fontSize=14;size=20;whiteSpace=wrap;html=1;fillColor=#fff2cc;strokeColor=#d6b656;fontColor=#666600;align=left;" parent="1" vertex="1">
          <mxGeometry x="760" y="720" width="680" height="80" as="geometry" />
        </mxCell>
        <mxCell id="KDdBKSseBK1i1XxG2ZYx-147" value="Create / Update of Travel Guides / Activities in a Popup (here: Create Travel Guide)" style="shape=note;strokeWidth=2;fontSize=14;size=20;whiteSpace=wrap;html=1;fillColor=#fff2cc;strokeColor=#d6b656;fontColor=#666600;align=left;" parent="1" vertex="1">
          <mxGeometry x="1480" y="720" width="680" height="80" as="geometry" />
        </mxCell>
      </root>
    </mxGraphModel>
  </diagram>
</mxfile>
